<svg width="200" height="200" viewBox="0 0 200 200" fill="none" xmlns="http://www.w3.org/2000/svg">
<rect width="200" height="200" rx="9" fill="url(#paint0_radial_15_21)"/>
<path d="M117.602 160.44H91.7156L86.2996 176H74.2283L99.4724 109.172H109.891L135.181 176H123.064L117.602 160.44ZM94.9744 151.077H114.344L104.659 123.354L94.9744 151.077ZM156.475 131.754C160.116 127.531 164.721 125.42 170.29 125.42C180.877 125.42 186.247 131.463 186.4 143.55V176H175.247V143.963C175.247 140.536 174.497 138.118 172.998 136.711C171.529 135.273 169.357 134.554 166.48 134.554C162.013 134.554 158.678 136.543 156.475 140.521V176H145.321V105.5H156.475V131.754Z" fill="black"/>
<path d="M117.602 160.44L118.546 160.109L118.311 159.44H117.602V160.44ZM91.7156 160.44V159.44H91.0048L90.7712 160.112L91.7156 160.44ZM86.2996 176V177H87.0103L87.244 176.329L86.2996 176ZM74.2283 176L73.2928 175.647L72.7816 177H74.2283V176ZM99.4724 109.172V108.172H98.7812L98.5369 108.818L99.4724 109.172ZM109.891 109.172L110.827 108.818L110.582 108.172H109.891V109.172ZM135.181 176V177H136.629L136.117 175.646L135.181 176ZM123.064 176L122.121 176.331L122.355 177H123.064V176ZM94.9744 151.077L94.0303 150.747L93.5658 152.077H94.9744V151.077ZM114.344 151.077V152.077H115.752L115.288 150.747L114.344 151.077ZM104.659 123.354L105.603 123.025L104.659 120.322L103.715 123.025L104.659 123.354ZM117.602 159.44H91.7156V161.44H117.602V159.44ZM90.7712 160.112L85.3551 175.671L87.244 176.329L92.66 160.769L90.7712 160.112ZM86.2996 175H74.2283V177H86.2996V175ZM75.1638 176.353L100.408 109.525L98.5369 108.818L73.2928 175.647L75.1638 176.353ZM99.4724 110.172H109.891V108.172H99.4724V110.172ZM108.956 109.526L134.246 176.354L136.117 175.646L110.827 108.818L108.956 109.526ZM135.181 175H123.064V177H135.181V175ZM124.008 175.669L118.546 160.109L116.659 160.772L122.121 176.331L124.008 175.669ZM94.9744 152.077H114.344V150.077H94.9744V152.077ZM115.288 150.747L105.603 123.025L103.715 123.684L113.399 151.407L115.288 150.747ZM103.715 123.025L94.0303 150.747L95.9184 151.407L105.603 123.684L103.715 123.025ZM156.475 131.754H155.475V134.445L157.232 132.407L156.475 131.754ZM186.4 143.55H187.4L187.4 143.537L186.4 143.55ZM186.4 176V177H187.4V176H186.4ZM175.247 176H174.247V177H175.247V176ZM172.998 136.711L172.298 137.425L172.306 137.433L172.314 137.44L172.998 136.711ZM156.475 140.521L155.6 140.036L155.475 140.262V140.521H156.475ZM156.475 176V177H157.475V176H156.475ZM145.321 176H144.321V177H145.321V176ZM145.321 105.5V104.5H144.321V105.5H145.321ZM156.475 105.5H157.475V104.5H156.475V105.5ZM157.232 132.407C160.684 128.404 165.012 126.42 170.29 126.42V124.42C164.43 124.42 159.548 126.658 155.717 131.101L157.232 132.407ZM170.29 126.42C175.392 126.42 179.07 127.87 181.511 130.617C183.973 133.388 185.326 137.644 185.4 143.562L187.4 143.537C187.322 137.369 185.913 132.56 183.006 129.288C180.076 125.992 175.776 124.42 170.29 124.42V126.42ZM185.4 143.55V176H187.4V143.55H185.4ZM186.4 175H175.247V177H186.4V175ZM176.247 176V143.963H174.247V176H176.247ZM176.247 143.963C176.247 140.435 175.483 137.672 173.682 135.982L172.314 137.44C173.512 138.565 174.247 140.636 174.247 143.963H176.247ZM173.698 135.996C171.978 134.313 169.513 133.554 166.48 133.554V135.554C169.201 135.554 171.08 136.233 172.298 137.425L173.698 135.996ZM166.48 133.554C164.094 133.554 161.961 134.087 160.116 135.187C158.273 136.286 156.772 137.919 155.6 140.036L157.349 141.005C158.38 139.144 159.649 137.794 161.141 136.904C162.631 136.015 164.399 135.554 166.48 135.554V133.554ZM155.475 140.521V176H157.475V140.521H155.475ZM156.475 175H145.321V177H156.475V175ZM146.321 176V105.5H144.321V176H146.321ZM145.321 106.5H156.475V104.5H145.321V106.5ZM155.475 105.5V131.754H157.475V105.5H155.475Z" fill="black"/>
<defs>
<radialGradient id="paint0_radial_15_21" cx="0" cy="0" r="1" gradientUnits="userSpaceOnUse" gradientTransform="translate(138 137) rotate(-135.596) scale(170.068)">
<stop stop-color="#F7DF1E"/>
<stop offset="1" stop-color="#AF4261"/>
</radialGradient>
</defs>
</svg>
